<?xml version="1.0" encoding="utf-8"?>
<!-- Generator: Adobe Illustrator 16.0.0, SVG Export Plug-In . SVG Version: 6.00 Build 0)  -->
<!DOCTYPE svg PUBLIC "-//W3C//DTD SVG 1.1//EN" "http://www.w3.org/Graphics/SVG/1.1/DTD/svg11.dtd">
<svg version="1.1" id="Layer_1" xmlns="http://www.w3.org/2000/svg" xmlns:xlink="http://www.w3.org/1999/xlink" x="0px" y="0px"
	 width="200px" height="200px" viewBox="0 0 200 200" style="enable-background:new 0 0 200 200;" xml:space="preserve">
<path style="fill:#F26722;" d="M187.214,26.221c0,0-38.428-2.891-85.694-25.986v-0.02c0,0.01,0,0.01-0.021,0.01
	c-0.009,0-0.02,0-0.02-0.01v0.02C54.212,23.331,15.785,26.221,15.785,26.221C7.39,155.977,99.319,199.198,101.479,200.205v0.01
	c0,0,0,0,0.02-0.01c0.021,0.01,0.021,0.01,0.021,0.01v-0.01C103.689,199.198,195.619,155.977,187.214,26.221z"/>
<path style="fill:#FFFFFF;" d="M89.264,136.758c-1.283,0-2.565-0.483-3.547-1.45l-35.063-34.585
	c-1.988-1.958-2.008-5.155-0.049-7.143c1.953-1.988,5.165-2.008,7.143-0.049l31.517,31.082l59.985-59.189
	c1.993-1.953,5.189-1.934,7.144,0.049c1.963,1.983,1.943,5.185-0.04,7.143l-63.542,62.683
	C91.829,136.274,90.546,136.758,89.264,136.758z"/>
</svg>
